<svg width="360" height="100" viewBox="0 0 360 100" fill="none" xmlns="http://www.w3.org/2000/svg">
<path d="M23.8234 28.4L25.6537 33.3462L30.5999 35.1765L25.6537 37.0068L23.8234 41.953L21.9932 37.0068L17.047 35.1765L21.9932 33.3462L23.8234 28.4Z" stroke="#0F5DF8" stroke-opacity="0.28" stroke-width="2" stroke-linejoin="round"/>
<path d="M15.3528 39.6941L16.9517 42.0483L19.3058 43.6471L16.9517 45.2459L15.3528 47.6L13.754 45.2459L11.3999 43.6471L13.754 42.0483L15.3528 39.6941Z" stroke="#0F5DF8" stroke-opacity="0.28" stroke-width="2" stroke-linejoin="round"/>
<path d="M62.8234 6.40002L64.6537 11.3462L69.5999 13.1765L64.6537 15.0068L62.8234 19.953L60.9932 15.0068L56.047 13.1765L60.9932 11.3462L62.8234 6.40002Z" stroke="#0F5DF8" stroke-opacity="0.28" stroke-width="2" stroke-linejoin="round"/>
<path d="M54.3528 17.6941L55.9517 20.0483L58.3058 21.6471L55.9517 23.2459L54.3528 25.6L52.754 23.2459L50.3999 21.6471L52.754 20.0483L54.3528 17.6941Z" stroke="#0F5DF8" stroke-opacity="0.28" stroke-width="2" stroke-linejoin="round"/>
<path d="M101.823 28.4L103.654 33.3462L108.6 35.1765L103.654 37.0068L101.823 41.953L99.9932 37.0068L95.047 35.1765L99.9932 33.3462L101.823 28.4Z" stroke="#0F5DF8" stroke-opacity="0.28" stroke-width="2" stroke-linejoin="round"/>
<path d="M93.3528 39.6941L94.9517 42.0483L97.3058 43.6471L94.9517 45.2459L93.3528 47.6L91.754 45.2459L89.3999 43.6471L91.754 42.0483L93.3528 39.6941Z" stroke="#0F5DF8" stroke-opacity="0.28" stroke-width="2" stroke-linejoin="round"/>
<path d="M140.823 6.40002L142.654 11.3462L147.6 13.1765L142.654 15.0068L140.823 19.953L138.993 15.0068L134.047 13.1765L138.993 11.3462L140.823 6.40002Z" stroke="#0F5DF8" stroke-opacity="0.28" stroke-width="2" stroke-linejoin="round"/>
<path d="M132.353 17.6941L133.952 20.0483L136.306 21.6471L133.952 23.2459L132.353 25.6L130.754 23.2459L128.4 21.6471L130.754 20.0483L132.353 17.6941Z" stroke="#0F5DF8" stroke-opacity="0.28" stroke-width="2" stroke-linejoin="round"/>
<path d="M179.823 30.4L181.654 35.3462L186.6 37.1765L181.654 39.0068L179.823 43.953L177.993 39.0068L173.047 37.1765L177.993 35.3462L179.823 30.4Z" stroke="#0F5DF8" stroke-opacity="0.28" stroke-width="2" stroke-linejoin="round"/>
<path d="M171.353 41.6941L172.952 44.0483L175.306 45.6471L172.952 47.2459L171.353 49.6L169.754 47.2459L167.4 45.6471L169.754 44.0483L171.353 41.6941Z" stroke="#0F5DF8" stroke-opacity="0.28" stroke-width="2" stroke-linejoin="round"/>
<path d="M218.823 6.40002L220.654 11.3462L225.6 13.1765L220.654 15.0068L218.823 19.953L216.993 15.0068L212.047 13.1765L216.993 11.3462L218.823 6.40002Z" stroke="#0F5DF8" stroke-opacity="0.28" stroke-width="2" stroke-linejoin="round"/>
<path d="M210.353 17.6941L211.952 20.0483L214.306 21.6471L211.952 23.2459L210.353 25.6L208.754 23.2459L206.4 21.6471L208.754 20.0483L210.353 17.6941Z" stroke="#0F5DF8" stroke-opacity="0.28" stroke-width="2" stroke-linejoin="round"/>
<path d="M257.823 32.4L259.654 37.3462L264.6 39.1765L259.654 41.0068L257.823 45.953L255.993 41.0068L251.047 39.1765L255.993 37.3462L257.823 32.4Z" stroke="#0F5DF8" stroke-opacity="0.28" stroke-width="2" stroke-linejoin="round"/>
<path d="M249.353 43.6941L250.952 46.0483L253.306 47.6471L250.952 49.2459L249.353 51.6L247.754 49.2459L245.4 47.6471L247.754 46.0483L249.353 43.6941Z" stroke="#0F5DF8" stroke-opacity="0.28" stroke-width="2" stroke-linejoin="round"/>
<path d="M296.823 6.40002L298.654 11.3462L303.6 13.1765L298.654 15.0068L296.823 19.953L294.993 15.0068L290.047 13.1765L294.993 11.3462L296.823 6.40002Z" stroke="#0F5DF8" stroke-opacity="0.28" stroke-width="2" stroke-linejoin="round"/>
<path d="M288.353 17.6941L289.952 20.0483L292.306 21.6471L289.952 23.2459L288.353 25.6L286.754 23.2459L284.4 21.6471L286.754 20.0483L288.353 17.6941Z" stroke="#0F5DF8" stroke-opacity="0.28" stroke-width="2" stroke-linejoin="round"/>
<path d="M335.823 34.4L337.654 39.3462L342.6 41.1765L337.654 43.0068L335.823 47.953L333.993 43.0068L329.047 41.1765L333.993 39.3462L335.823 34.4Z" stroke="#0F5DF8" stroke-opacity="0.28" stroke-width="2" stroke-linejoin="round"/>
<path d="M327.353 45.6941L328.952 48.0483L331.306 49.6471L328.952 51.2459L327.353 53.6L325.754 51.2459L323.4 49.6471L325.754 48.0483L327.353 45.6941Z" stroke="#0F5DF8" stroke-opacity="0.28" stroke-width="2" stroke-linejoin="round"/>
</svg>
